<svg width="22" height="28" viewBox="0 0 22 28" fill="none" xmlns="http://www.w3.org/2000/svg">
<path d="M21 11.5C21 17.0225 11 26.5 11 26.5C11 26.5 1 17.0225 1 11.5C1 8.84783 2.05357 6.3043 3.92893 4.42893C5.8043 2.55357 8.34784 1.5 11 1.5C13.6522 1.5 16.1957 2.55357 18.0711 4.42893C19.9464 6.3043 21 8.84783 21 11.5Z" stroke="white" stroke-width="2"/>
<path d="M11 12.75C11.3315 12.75 11.6495 12.6183 11.8839 12.3839C12.1183 12.1495 12.25 11.8315 12.25 11.5C12.25 11.1685 12.1183 10.8505 11.8839 10.6161C11.6495 10.3817 11.3315 10.25 11 10.25C10.6685 10.25 10.3505 10.3817 10.1161 10.6161C9.8817 10.8505 9.75 11.1685 9.75 11.5C9.75 11.8315 9.8817 12.1495 10.1161 12.3839C10.3505 12.6183 10.6685 12.75 11 12.75Z" stroke="white" stroke-width="2" stroke-linecap="round" stroke-linejoin="round"/>
</svg>
