<svg width="28" height="21" viewBox="0 0 28 21" fill="none" xmlns="http://www.w3.org/2000/svg">
<path d="M7.75 6.66675L14 11.0417L20.25 6.66675" stroke="white" stroke-width="2" stroke-linecap="round" stroke-linejoin="round"/>
<path d="M1.5 16.6667V4.16675C1.5 3.50371 1.76339 2.86782 2.23223 2.39898C2.70107 1.93014 3.33696 1.66675 4 1.66675H24C24.663 1.66675 25.2989 1.93014 25.7678 2.39898C26.2366 2.86782 26.5 3.50371 26.5 4.16675V16.6667C26.5 17.3298 26.2366 17.9657 25.7678 18.4345C25.2989 18.9034 24.663 19.1667 24 19.1667H4C3.33696 19.1667 2.70107 18.9034 2.23223 18.4345C1.76339 17.9657 1.5 17.3298 1.5 16.6667Z" stroke="white" stroke-width="2"/>
</svg>
