<svg width="46" height="41" viewBox="0 0 46 41" fill="none" xmlns="http://www.w3.org/2000/svg">
<path d="M9.93739 15.901C10.9517 12.1156 13.2831 8.81627 16.5125 6.59616C19.7419 4.37605 23.6574 3.38084 27.5549 3.78948C31.4525 4.19811 35.0764 5.98378 37.7751 8.82542C40.4738 11.6671 42.0702 15.3782 42.2773 19.2917C42.4845 23.2051 41.2887 27.0641 38.905 30.1747C36.5213 33.2853 33.1061 35.4435 29.2735 36.2612C25.4408 37.079 21.4422 36.5026 17.9965 34.6358C14.5508 32.769 11.8841 29.7341 10.4759 26.0769" stroke="white" stroke-opacity="0.2" stroke-linecap="round"/>
<path d="M30.9224 20.2468C25.1291 20.2468 24.618 23.825 24.618 26.3809C24.618 20.5875 21.5509 20.2468 17.9727 20.2468C24.618 20.2468 24.618 16.3278 24.618 13.9423C24.618 19.3948 27.8554 20.2468 30.9224 20.2468Z" stroke="white" stroke-opacity="0.2"/>
<rect y="20.7434" width="0.999999" height="18" transform="rotate(-90 0 20.7434)" fill="white" fill-opacity="0.2"/>
</svg>
